<?xml version="1.0" encoding="UTF-8"?>
<!DOCTYPE svg PUBLIC "-//W3C//DTD SVG 1.1//EN" "http://www.w3.org/Graphics/SVG/1.1/DTD/svg11.dtd">
<!-- Creator: CorelDRAW -->
<svg xmlns="http://www.w3.org/2000/svg" xml:space="preserve" width="580mm" height="1000mm" version="1.1" style="shape-rendering:geometricPrecision; text-rendering:geometricPrecision; image-rendering:optimizeQuality; fill-rule:evenodd; clip-rule:evenodd"
viewBox="0 0 58000 100000"
 xmlns:xlink="http://www.w3.org/1999/xlink"
 xmlns:xodm="http://www.corel.com/coreldraw/odm/2003">
 <defs>
  <style type="text/css">
   <![CDATA[
    .fil2 {fill:#FF9800}
    .fil0 {fill:#0D47A1;fill-rule:nonzero}
    .fil1 {fill:#FF9800;fill-rule:nonzero}
   ]]>
  </style>
 </defs>
 <g id="Layer_x0020_1">
  <metadata id="CorelCorpID_0Corel-Layer"/>
  <g id="_1422322518128">
   <path class="fil0" d="M35715.58 55894.47l0 -9025.59c0,-1021.16 830.24,-1851.4 1851.4,-1851.4l8331.31 0c1021.16,0 1851.4,830.24 1851.4,1851.4l0 9257.01c0,1021.16 -830.24,1851.41 -1851.4,1851.41l-10182.71 0 0 -2082.83zm1851.4 -8099.89l0 1851.41c0,512.03 413.67,925.7 925.71,925.7l1851.39 0c512.03,0 925.71,-413.67 925.71,-925.7l0 -1851.41c0,-512.02 -413.68,-925.7 -925.71,-925.7l-1851.39 0c-512.04,0 -925.71,413.68 -925.71,925.7zm694.28 6942.76c-384.75,0 -694.28,309.54 -694.28,694.28 0,384.74 309.53,694.27 694.28,694.27l6942.75 0c384.75,0 694.28,-309.53 694.28,-694.27 0,-384.74 -309.53,-694.28 -694.28,-694.28l-6942.75 0zm-694.28 -2082.83c0,384.75 309.53,694.28 694.28,694.28l6942.75 0c384.75,0 694.28,-309.53 694.28,-694.28 0,-384.74 -309.53,-694.28 -694.28,-694.28l-6942.75 0c-384.75,0 -694.28,309.54 -694.28,694.28zm5785.64 -3471.38c-384.75,0 -694.28,309.54 -694.28,694.28 0,384.75 309.53,694.28 694.28,694.28l1851.39 0c384.75,0 694.28,-309.53 694.28,-694.28 0,-384.74 -309.53,-694.28 -694.28,-694.28l-1851.39 0z"/>
   <path class="fil1" d="M34416.92 52974.01c-829.19,0 -1047.03,330.27 -1243.79,962.71l-428.65 1370.28 -428.66 -1370.28c-196.75,-632.44 -407.57,-962.71 -1243.79,-962.71l-794.06 0 0 4918.96 1335.15 0 0 -2508.67 309.19 1047.04c196.76,653.51 267.03,822.16 780,822.16l91.36 0c505.95,0 583.25,-168.65 780,-822.16l309.2 -1047.04 0 2508.67 1335.14 0 0 -4918.96 -801.09 0zm-7048.16 3843.82l-224.87 0c-442.71,0 -885.41,-231.9 -885.41,-1384.34 0,-1152.44 442.7,-1384.34 885.41,-1384.34l224.87 0c449.73,0 885.41,231.9 885.41,1384.34 0,1152.44 -435.68,1384.34 -885.41,1384.34zm-63.25 -3885.99l-98.38 0c-1918.39,0 -2283.8,1110.28 -2283.8,2501.65 0,1391.36 365.41,2501.64 2283.8,2501.64l98.38 0c1918.4,0 2283.81,-1110.28 2283.81,-2501.64 0,-1391.37 -365.41,-2501.65 -2283.81,-2501.65zm-5010.31 3885.99l-224.87 0c-442.71,0 -885.41,-231.9 -885.41,-1384.34 0,-1152.44 442.7,-1384.34 885.41,-1384.34l224.87 0c372.43,0 737.84,126.49 850.27,822.17l1264.88 0c-84.32,-1068.12 -484.87,-1939.48 -2178.4,-1939.48l-98.38 0c-1918.39,0 -2283.8,1110.28 -2283.8,2501.65 0,1391.36 365.41,2501.64 2283.8,2501.64l98.38 0c1693.53,0 2094.08,-871.36 2178.4,-1939.47l-1264.88 0c-112.43,695.68 -477.84,822.17 -850.27,822.17zm-3654.09 -133.52l-28.11 0c-548.11,0 -653.52,288.11 -653.52,646.49 0,358.38 105.41,646.5 653.52,646.5l28.11 0c548.11,0 653.52,-288.12 653.52,-646.5 0,-358.38 -105.41,-646.49 -653.52,-646.49z"/>
   <path class="fil0" d="M33896.92 50489l-1075.15 0 365.41 -913.52c252.98,-618.39 414.6,-899.47 709.74,-948.66l0 1862.18zm0 -2986.51c-1138.39,0 -1440.56,252.97 -1890.29,1335.14l-1482.72 3583.82 1510.83 0 330.27 -815.14 1531.91 0 0 815.14 1321.09 0 0 -4918.96 -1321.09 0zm-6900.61 0l0 1117.3 1377.31 0 0 3801.66 1335.15 0 0 -3801.66 1377.31 0 0 -1117.3 -4089.77 0zm-2318.94 2466.51l-906.5 0 0 -1349.21 906.5 0c337.3,0 534.06,210.82 534.06,695.69 0,484.87 -217.84,653.52 -534.06,653.52zm1025.95 1025.95c674.6,-274.06 899.47,-1061.09 899.47,-1686.5 0,-772.98 -337.3,-1798.94 -1433.53,-1805.96l-2733.53 0 0 4918.96 1335.14 0 0 -1328.12 597.31 0 224.86 365.41c421.63,681.63 702.71,1040.01 1447.58,1040.01 196.76,0 428.66,-28.11 702.71,-77.3l-1040.01 -1426.5zm-5424.91 -505.95l-1075.15 0 365.41 -913.52c252.98,-618.39 414.6,-899.47 709.74,-948.66l0 1862.18zm0 -2986.51c-1138.39,0 -1440.56,252.97 -1890.29,1335.14l-1482.72 3583.82 1510.83 0 330.27 -815.14 1531.91 0 0 815.14 1321.09 0 0 -4918.96 -1321.09 0zm-3436.25 0l-1447.58 0 -1363.25 1939.47 0 -1939.47 -1335.15 0 0 4918.96 1335.15 0 0 -1939.48 1363.25 1939.48 1447.58 0 -1714.61 -2459.48 1714.61 -2459.48zm17054.76 -2485.01l-1075.15 0 365.41 -913.52c252.98,-618.39 414.6,-899.47 709.74,-948.66l0 1862.18zm0 -2986.51c-1138.39,0 -1440.56,252.97 -1890.29,1335.14l-1482.72 3583.82 1510.83 0 330.27 -815.14 1531.91 0 0 815.14 1321.09 0 0 -4918.96 -1321.09 0zm-6900.61 0l0 1117.3 1377.31 0 0 3801.66 1335.15 0 0 -3801.66 1377.31 0 0 -1117.3 -4089.77 0zm-2318.94 2466.51l-906.5 0 0 -1349.21 906.5 0c337.3,0 534.06,210.82 534.06,695.69 0,484.87 -217.84,653.52 -534.06,653.52zm1025.95 1025.95c674.6,-274.06 899.47,-1061.09 899.47,-1686.5 0,-772.98 -337.3,-1798.94 -1433.53,-1805.96l-2733.53 0 0 4918.96 1335.14 0 0 -1328.12 597.31 0 224.86 365.41c421.63,681.63 702.71,1040.01 1447.58,1040.01 196.76,0 428.66,-28.11 702.71,-77.3l-1040.01 -1426.5zm-5424.91 -505.95l-1075.15 0 365.41 -913.52c252.98,-618.39 414.6,-899.47 709.74,-948.66l0 1862.18zm0 -2986.51c-1138.39,0 -1440.56,252.97 -1890.29,1335.14l-1482.72 3583.82 1510.83 0 330.27 -815.14 1531.91 0 0 815.14 1321.09 0 0 -4918.96 -1321.09 0zm-3794.63 0l-1152.44 2845.97c-252.98,618.38 -449.74,829.2 -751.9,864.33l0 -3710.3 -1159.47 0 -1159.47 2845.97c-245.95,618.38 -407.57,829.2 -702.71,864.33l0 -3710.3 -1321.09 0 0 4918.96 1321.09 0c983.79,0 1391.36,-428.65 1700.55,-1138.39l0 1138.39 1314.07 0c1145.42,0 1440.55,-252.98 1890.29,-1335.15l1489.74 -3583.81 -1468.66 0z"/>
   <rect class="fil2" x="35715.57" y="42030.97" width="12034.11" height="2503.84" rx="540.21" ry="1251.92"/>
  </g>
 </g>
</svg>
