<?xml version="1.0" encoding="UTF-8"?>
<!DOCTYPE svg PUBLIC "-//W3C//DTD SVG 1.1//EN" "http://www.w3.org/Graphics/SVG/1.1/DTD/svg11.dtd">
<!-- Creator: CorelDRAW -->
<svg xmlns="http://www.w3.org/2000/svg" xml:space="preserve" width="400mm" height="170.04mm" version="1.1" style="shape-rendering:geometricPrecision; text-rendering:geometricPrecision; image-rendering:optimizeQuality; fill-rule:evenodd; clip-rule:evenodd"
viewBox="0 0 40000 17004"
 xmlns:xlink="http://www.w3.org/1999/xlink"
 xmlns:xodm="http://www.corel.com/coreldraw/odm/2003">
 <defs>
  <style type="text/css">
   <![CDATA[
    .fil2 {fill:#FF9800}
    .fil0 {fill:#0D47A1;fill-rule:nonzero}
    .fil1 {fill:#FF9800;fill-rule:nonzero}
   ]]>
  </style>
 </defs>
 <g id="Layer_x0020_1">
  <metadata id="CorelCorpID_0Corel-Layer"/>
  <g id="_1422377347472">
   <path class="fil0" d="M27161.26 14786.99l0 -9623.96c0,-1088.86 885.28,-1974.15 1974.14,-1974.15l8883.65 0c1088.86,0 1974.14,885.29 1974.14,1974.15l0 9870.72c0,1088.86 -885.28,1974.15 -1974.14,1974.15l-10857.79 0 0 -2220.91zm1974.14 -8636.89l0 1974.14c0,545.98 441.1,987.07 987.08,987.07l1974.14 0c545.97,0 987.07,-441.09 987.07,-987.07l0 -1974.14c0,-545.98 -441.1,-987.07 -987.07,-987.07l-1974.14 0c-545.98,0 -987.08,441.09 -987.08,987.07zm740.3 7403.04c-410.25,0 -740.3,330.06 -740.3,740.3 0,410.26 330.05,740.31 740.3,740.31l7403.05 0c410.25,0 740.3,-330.05 740.3,-740.31 0,-410.24 -330.05,-740.3 -740.3,-740.3l-7403.05 0zm-740.3 -2220.91c0,410.25 330.05,740.3 740.3,740.3l7403.05 0c410.25,0 740.3,-330.05 740.3,-740.3 0,-410.25 -330.05,-740.31 -740.3,-740.31l-7403.05 0c-410.25,0 -740.3,330.06 -740.3,740.31zm6169.21 -3701.53c-410.26,0 -740.31,330.06 -740.31,740.31 0,410.25 330.05,740.3 740.31,740.3l1974.14 0c410.25,0 740.3,-330.05 740.3,-740.3 0,-410.25 -330.05,-740.31 -740.3,-740.31l-1974.14 0z"/>
   <path class="fil1" d="M25776.5 11672.91c-884.17,0 -1116.45,352.16 -1326.25,1026.53l-457.07 1461.13 -457.08 -1461.13c-209.79,-674.37 -434.59,-1026.53 -1326.25,-1026.53l-846.7 0 0 5245.07 1423.66 0 0 -2674.99 329.69 1116.46c209.81,696.83 284.74,876.66 831.71,876.66l97.42 0c539.49,0 621.92,-179.83 831.71,-876.66l329.7 -1116.46 0 2674.99 1423.66 0 0 -5245.07 -854.2 0zm-7515.44 4098.65l-239.77 0c-472.06,0 -944.11,-247.27 -944.11,-1476.12 0,-1228.84 472.05,-1476.12 944.11,-1476.12l239.77 0c479.55,0 944.11,247.28 944.11,1476.12 0,1228.85 -464.56,1476.12 -944.11,1476.12zm-67.44 -4143.62l-104.9 0c-2045.58,0 -2435.21,1183.89 -2435.21,2667.5 0,1483.61 389.63,2667.49 2435.21,2667.49l104.9 0c2045.59,0 2435.22,-1183.88 2435.22,-2667.49 0,-1483.61 -389.63,-2667.5 -2435.22,-2667.5zm-5342.48 4143.62l-239.78 0c-472.06,0 -944.11,-247.27 -944.11,-1476.12 0,-1228.84 472.05,-1476.12 944.11,-1476.12l239.78 0c397.12,0 786.76,134.88 906.64,876.68l1348.74 0c-89.91,-1138.93 -517.02,-2068.06 -2322.82,-2068.06l-104.9 0c-2045.58,0 -2435.21,1183.89 -2435.21,2667.5 0,1483.61 389.63,2667.49 2435.21,2667.49l104.9 0c1805.8,0 2232.91,-929.12 2322.82,-2068.05l-1348.74 0c-119.88,741.8 -509.52,876.68 -906.64,876.68zm-3896.35 -142.37l-29.97 0c-584.45,0 -696.85,307.21 -696.85,689.35 0,382.14 112.4,689.36 696.85,689.36l29.97 0c584.45,0 696.85,-307.22 696.85,-689.36 0,-382.14 -112.4,-689.35 -696.85,-689.35z"/>
   <path class="fil0" d="M25222.02 9023.15l-1146.43 0 389.64 -974.09c269.75,-659.39 442.09,-959.1 756.79,-1011.55l0 1985.64zm0 -3184.51c-1213.86,0 -1536.06,269.74 -2015.61,1423.65l-1581.02 3821.42 1611 0 352.16 -869.18 1633.47 0 0 869.18 1408.68 0 0 -5245.07 -1408.68 0zm-7358.1 0l0 1191.37 1468.62 0 0 4053.7 1423.67 0 0 -4053.7 1468.62 0 0 -1191.37 -4360.91 0zm-2472.68 2630.03l-966.6 0 0 -1438.66 966.6 0c359.66,0 569.47,224.8 569.47,741.81 0,517.02 -232.28,696.85 -569.47,696.85zm1093.97 1093.97c719.32,-292.23 959.1,-1131.44 959.1,-1798.31 0,-824.23 -359.66,-1918.21 -1528.57,-1925.69l-2914.75 0 0 5245.07 1423.65 0 0 -1416.17 636.91 0 239.77 389.64c449.58,726.82 749.3,1108.96 1543.55,1108.96 209.81,0 457.08,-29.98 749.3,-82.43l-1108.96 -1521.07zm-5784.57 -539.49l-1146.43 0 389.64 -974.09c269.75,-659.39 442.09,-959.1 756.79,-1011.55l0 1985.64zm0 -3184.51c-1213.86,0 -1536.06,269.74 -2015.61,1423.65l-1581.02 3821.42 1611 0 352.16 -869.18 1633.47 0 0 869.18 1408.68 0 0 -5245.07 -1408.68 0zm-3664.06 0l-1543.55 0 -1453.63 2068.05 0 -2068.05 -1423.67 0 0 5245.07 1423.67 0 0 -2068.06 1453.63 2068.06 1543.55 0 -1828.29 -2622.54 1828.29 -2622.53zm18185.44 -2649.76l-1146.43 0 389.64 -974.09c269.75,-659.38 442.09,-959.1 756.79,-1011.55l0 1985.64zm0 -3184.51c-1213.86,0 -1536.06,269.74 -2015.61,1423.66l-1581.02 3821.41 1611 0 352.16 -869.18 1633.47 0 0 869.18 1408.68 0 0 -5245.07 -1408.68 0zm-7358.1 0l0 1191.37 1468.62 0 0 4053.7 1423.67 0 0 -4053.7 1468.62 0 0 -1191.37 -4360.91 0zm-2472.68 2630.03l-966.6 0 0 -1438.66 966.6 0c359.66,0 569.47,224.8 569.47,741.82 0,517.01 -232.28,696.84 -569.47,696.84zm1093.97 1093.97c719.32,-292.23 959.1,-1131.44 959.1,-1798.31 0,-824.23 -359.66,-1918.2 -1528.57,-1925.69l-2914.75 0 0 5245.07 1423.65 0 0 -1416.17 636.91 0 239.77 389.64c449.58,726.82 749.3,1108.96 1543.55,1108.96 209.81,0 457.08,-29.97 749.3,-82.43l-1108.96 -1521.07zm-5784.57 -539.49l-1146.43 0 389.64 -974.09c269.75,-659.38 442.09,-959.1 756.79,-1011.55l0 1985.64zm0 -3184.51c-1213.86,0 -1536.06,269.74 -2015.61,1423.66l-1581.02 3821.41 1611 0 352.16 -869.18 1633.47 0 0 869.18 1408.68 0 0 -5245.07 -1408.68 0zm-4046.2 0l-1228.84 3034.65c-269.76,659.38 -479.56,884.17 -801.75,921.63l0 -3956.28 -1236.34 0 -1236.34 3034.65c-262.26,659.38 -434.59,884.17 -749.3,921.63l0 -3956.28 -1408.68 0 0 5245.07 1408.68 0c1049.01,0 1483.6,-457.06 1813.29,-1213.86l0 1213.86 1401.19 0c1221.36,0 1536.06,-269.75 2015.61,-1423.66l1588.51 -3821.41 -1566.03 0z"/>
   <rect class="fil2" x="27161.25" y="4.37" width="12831.94" height="2669.84" rx="576.02" ry="1334.92"/>
  </g>
 </g>
</svg>
