<?xml version="1.0" encoding="UTF-8"?>
<!DOCTYPE svg PUBLIC "-//W3C//DTD SVG 1.1//EN" "http://www.w3.org/Graphics/SVG/1.1/DTD/svg11.dtd">
<!-- Creator: CorelDRAW -->
<svg xmlns="http://www.w3.org/2000/svg" xml:space="preserve" width="60.9598mm" height="34.2366mm" version="1.1" style="shape-rendering:geometricPrecision; text-rendering:geometricPrecision; image-rendering:optimizeQuality; fill-rule:evenodd; clip-rule:evenodd"
viewBox="0 0 6095.98 3423.66"
 xmlns:xlink="http://www.w3.org/1999/xlink"
 xmlns:xodm="http://www.corel.com/coreldraw/odm/2003">
 <defs>
  <style type="text/css">
   <![CDATA[
    .fil0 {fill:#0D47A1;fill-rule:nonzero}
    .fil1 {fill:#FF9800;fill-rule:nonzero}
   ]]>
  </style>
 </defs>
 <g id="Layer_x0020_1">
  <metadata id="CorelCorpID_0Corel-Layer"/>
  <g id="_2108167690000">
   <path class="fil0" d="M2779.78 1148.71l0 -947.45c0,-107.2 87.15,-194.36 194.35,-194.36l568.65 0 58.19 0c243.15,0 442.08,198.94 442.08,442.09l0 476.29c0,243.14 -198.93,442.08 -442.08,442.08l-58.19 0 -763 0 0 -218.65zm194.35 -850.28l0 194.35c0,53.75 43.42,97.18 97.17,97.18l194.35 0c53.75,0 97.18,-43.43 97.18,-97.18l0 -194.35c0,-53.75 -43.43,-97.17 -97.18,-97.17l-194.35 0c-53.75,0 -97.17,43.42 -97.17,97.17zm72.88 728.82c-40.39,0 -72.88,32.49 -72.88,72.88 0,40.38 32.49,72.88 72.88,72.88l728.81 0c40.39,0 72.88,-32.5 72.88,-72.88 0,-40.39 -32.49,-72.88 -72.88,-72.88l-728.81 0zm-72.88 -218.65c0,40.39 32.49,72.88 72.88,72.88l728.81 0c40.39,0 72.88,-32.49 72.88,-72.88 0,-40.39 -32.49,-72.88 -72.88,-72.88l-728.81 0c-40.39,0 -72.88,32.49 -72.88,72.88zm607.34 -364.41c-40.39,0 -72.88,32.5 -72.88,72.88 0,40.39 32.49,72.89 72.88,72.89l194.35 0c40.39,0 72.88,-32.5 72.88,-72.89 0,-40.38 -32.49,-72.88 -72.88,-72.88l-194.35 0zm-2436.75 -437.29c-229.35,0 -289.58,91.34 -344,266.26l-118.56 379 -118.56 -379c-54.41,-174.92 -112.71,-266.26 -344,-266.26l-219.61 0 0 1360.46 369.27 0 0 -693.83 85.51 289.58c54.42,180.74 73.84,227.38 215.73,227.38l25.27 0c139.93,0 161.3,-46.64 215.73,-227.38l85.5 -289.58 0 693.83 369.27 0 0 -1360.46 -221.55 0zm839.87 309.02l602.49 0 0 -309.02 -804.6 0c-169.09,0 -223.51,79.68 -223.51,239.06l0 884.3c0,157.42 54.42,237.1 223.51,237.1l804.6 0 0 -309.02 -602.49 0c-46.64,0 -56.35,-13.61 -56.35,-58.3l0 -157.43 561.68 0 0 -310.96 -561.68 0 0 -157.43c0,-42.76 9.71,-58.3 56.35,-58.3zm2620.43 1051.44l0 -1360.46 -369.27 0 0 1360.46 369.27 0zm1125.58 -1360.46c-314.85,0 -398.43,69.97 -522.8,369.28l-410.08 991.18 392.59 0 91.34 -225.44 448.95 0 0 225.44 365.39 0 0 -1360.46 -365.39 0zm0 826l-322.63 0 103.02 -252.66c69.97,-171.03 134.1,-250.71 219.61,-262.37l0 515.03z"/>
   <path class="fil1" d="M5741.28 2307.76l-313.21 0 100.02 -245.28c67.92,-166.03 130.17,-243.38 213.19,-254.7l0 499.98zm0 -801.86c-305.65,0 -386.79,67.92 -507.52,358.48l-398.1 962.22 381.12 0 88.67 -218.85 435.83 0 0 218.85 354.71 0 0 -1320.7 -354.71 0zm-1111.28 0l-241.49 473.57 -249.05 -473.57 -369.8 0 449.04 856.57 0 464.13 356.59 0 0 -486.77 437.72 -833.93 -383.01 0zm-1409.37 662.23l-243.38 0 0 -362.24 243.38 0c90.56,0 143.38,56.59 143.38,186.78 0,130.18 -58.48,175.46 -143.38,175.46zm292.43 266.03c167.94,-79.24 224.54,-281.11 224.54,-443.36 0,-207.56 -90.57,-483.01 -384.91,-484.9l-733.92 0 0 1320.7 358.48 0 0 -356.59 160.35 0 60.39 98.12c113.2,182.99 201.87,279.21 409.43,279.21 54.7,0 116.96,-7.53 190.54,-20.74l-284.9 -392.44zm-1475.41 -126.4l-313.2 0 100.01 -245.28c67.92,-166.03 130.18,-243.38 213.19,-254.7l0 499.98zm0 -801.86c-305.65,0 -386.78,67.92 -507.52,358.48l-398.1 962.22 381.12 0 88.67 -218.85 435.83 0 0 218.85 354.71 0 0 -1320.7 -354.71 0zm-924.49 0l-388.68 0 -366.01 520.73 0 -520.73 -358.48 0 0 1320.7 358.48 0 0 -520.73 366.01 520.73 388.68 0 -460.36 -660.34 460.36 -660.36z"/>
   <path class="fil0" d="M94.15 2992.86l-94.16 0 0 430.14 94.16 0 0 -82.54 63.94 -83.7 94.75 166.24 108.7 0 -141.83 -246.46 140.67 -183.68 -111.03 0 -155.2 205.77 0 -205.77zm764.16 430.14l0 -87.19 -179.03 0 0 -88.94 158.69 0 0 -82.54 -158.69 0 0 -84.28 179.03 0 0 -87.19 -273.19 0 0 430.14 273.19 0zm436.33 6.98c107.53,0 187.75,-63.37 202.86,-159.27l-97.65 0c-11.63,42.43 -50.57,68.59 -103.47,68.59 -69.17,0 -112.18,-50.57 -112.18,-131.37 0,-81.96 42.43,-131.37 112.18,-131.37 51.74,0 88.36,24.41 101.14,67.43l99.4 0c-13.37,-96.49 -90.68,-158.11 -198.21,-158.11 -128.46,0 -213.91,88.36 -213.91,222.63 0,136.02 80.8,221.47 209.84,221.47zm463.06 0.58c28.48,0 53.48,-23.84 53.48,-52.32 0,-29.06 -25,-52.89 -53.48,-52.89 -29.64,0 -53.48,23.83 -53.48,52.89 0,28.48 23.84,52.32 53.48,52.32zm647.33 -0.58c107.53,0 187.75,-63.37 202.86,-159.27l-97.65 0c-11.63,42.43 -50.57,68.59 -103.47,68.59 -69.17,0 -112.19,-50.57 -112.19,-131.37 0,-81.96 42.44,-131.37 112.19,-131.37 51.73,0 88.35,24.41 101.14,67.43l99.4 0c-13.37,-96.49 -90.68,-158.11 -198.21,-158.11 -128.47,0 -213.91,88.36 -213.91,222.63 0,136.02 80.79,221.47 209.84,221.47zm532.81 -437.12l-94.17 0 0 430.14 94.17 0 0 -430.14zm353.78 430.14l0 -120.32c0,-47.09 -0.58,-83.13 -5.81,-115.1l90.68 235.42 86.02 0 91.26 -235.42c-4.65,31.97 -4.65,52.32 -4.65,145.32l0 90.1 91.26 0 0 -430.14 -92.42 0 -128.46 320.86 -127.88 -320.86 -91.26 0 0 430.14 91.26 0zm670 0l30.8 -90.68 138.93 0 30.22 90.68 99.98 0 -152.87 -430.14 -91.84 0 -153.46 430.14 98.24 0zm88.93 -261.57c5.23,-15.7 9.88,-31.97 11.63,-41.86 1.74,10.47 6.97,27.33 11.62,41.86l30.81 91.84 -84.87 0 30.81 -91.84zm413.65 99.97c0,102.89 69.17,168.58 176.71,168.58 108.12,0 177.87,-66.27 177.87,-168.58l0 -268.54 -94.17 0 0 262.15c0,52.9 -30.22,83.71 -83.7,83.71 -52.9,0 -82.54,-29.65 -82.54,-83.71l0 -262.15 -94.17 0 0 268.54zm707.2 161.6l0 -273.2 181.36 273.2 93 0 0 -430.14 -93 0 0 273.78 -181.36 -273.78 -93.01 0 0 430.14 93.01 0zm730.44 -348.76c44.76,0 84.29,19.76 95.33,65.1l98.82 0c-9.88,-93.01 -88.94,-153.46 -191.82,-153.46 -133.11,0 -219.72,93.59 -219.72,223.21 0,131.95 84.28,220.3 204.61,220.3 51.15,0 97.65,-18.02 120.9,-45.34l5.23 38.95 80.8 0 0 -247.04 -202.28 0 0 82.54 113.92 0c-4.06,44.76 -35.45,83.12 -106.37,83.12 -68.59,0 -117.41,-43.01 -117.41,-129.62 0,-83.12 40.1,-137.76 117.99,-137.76z"/>
  </g>
 </g>
</svg>
