<?xml version="1.0" encoding="UTF-8"?>
<!DOCTYPE svg PUBLIC "-//W3C//DTD SVG 1.1//EN" "http://www.w3.org/Graphics/SVG/1.1/DTD/svg11.dtd">
<!-- Creator: CorelDRAW -->
<svg xmlns="http://www.w3.org/2000/svg" xml:space="preserve" width="60.9598mm" height="42.3332mm" version="1.1" style="shape-rendering:geometricPrecision; text-rendering:geometricPrecision; image-rendering:optimizeQuality; fill-rule:evenodd; clip-rule:evenodd"
viewBox="0 0 6095.98 4233.32"
 xmlns:xlink="http://www.w3.org/1999/xlink"
 xmlns:xodm="http://www.corel.com/coreldraw/odm/2003">
 <defs>
  <style type="text/css">
   <![CDATA[
    .fil0 {fill:#FF9800;fill-rule:nonzero}
   ]]>
  </style>
 </defs>
 <g id="Layer_x0020_1">
  <metadata id="CorelCorpID_0Corel-Layer"/>
  <g id="_2107723256048">
   <path class="fil0" d="M480.74 1870.15c-23.12,-17.33 -38.14,-46.21 -38.14,-73.95l0 -659.87 50.85 0c70.5,0 137.53,41.6 168.73,104.01l6.93 15.01 24.27 0 -24.27 -190.68 -644.85 0 -24.27 190.68 24.27 0 8.09 -15.01c31.2,-62.41 98.23,-104.01 167.57,-104.01l52 0 0 659.87c0,27.74 -16.18,56.62 -38.13,73.95l-10.4 8.1 0 24.26 287.75 0 0 -24.26 -10.4 -8.1zm396.37 -781.21c18.5,21.96 24.27,52 13.87,78.59l-253.08 632.14c-9.24,25.41 -33.51,52 -56.63,65.87l-21.95 12.71 0 24.26 186.05 0 0 -24.26 -10.4 -6.94c-20.8,-17.33 -27.74,-46.23 -18.49,-71.64l27.73 -68.19 321.28 0 26.57 68.19c11.56,25.41 2.31,54.31 -18.49,71.64l-10.4 6.94 0 24.26 314.34 0 0 -24.26 -21.96 -11.56c-24.27,-15.02 -46.22,-41.61 -57.78,-67.02l-285.45 -735 -136.37 0 0 23.12 1.16 1.15zm-104 570.89l134.04 -337.45 131.75 337.45 -265.79 0zm1327.82 -488.83c0,-27.74 15.03,-57.79 38.13,-73.97l9.26 -9.24 0 -23.12 -167.57 0 0 23.12 10.4 9.24c23.11,16.18 38.13,46.23 38.13,73.97l0 404.47 -362.87 -510.8 -283.13 0 0 23.12 10.4 6.94c23.11,17.33 38.14,47.37 38.14,76.27l0 625.2c0,27.74 -15.03,56.62 -38.14,73.95l-10.4 8.1 0 24.26 167.57 0 0 -24.26 -10.4 -8.1c-21.96,-17.33 -36.99,-46.21 -36.99,-73.95l0 -629.83 523.52 736.14 73.95 0 0 -731.51zm350.16 699.15c-20.81,-17.33 -36.98,-46.21 -36.98,-73.95l0 -625.2c0,-27.74 16.17,-57.79 36.98,-73.97l11.56 -9.24 0 -23.12 -287.76 0 0 23.12 10.4 9.24c23.11,16.18 38.14,46.23 38.14,73.97l0 625.2c0,27.74 -15.03,56.62 -38.14,73.95l-10.4 8.1 0 24.26 287.76 0 0 -24.26 -11.56 -8.1zm283.14 -701.47c-9.26,-26.58 0,-56.62 20.8,-73.95l10.4 -6.94 0 -23.12 -314.34 0 0 23.12 21.96 12.71c23.11,13.87 46.23,41.6 54.31,68.18l253.08 733.83 78.59 0 154.85 -435.66 150.24 435.66 78.58 0 260.02 -733.83c9.25,-26.58 32.36,-54.31 56.63,-68.18l20.8 -12.71 0 -23.12 -184.91 0 0 23.12 9.26 6.94c21.95,17.33 30.04,47.37 20.8,73.95l-157.17 443.78 -151.39 -443.78c-8.09,-26.58 0,-56.62 21.95,-73.95l9.26 -6.94 0 -23.12 -313.18 0 0 23.12 20.8 12.71c24.27,13.87 47.37,41.6 55.47,68.18l64.71 186.06 -91.3 257.72 -150.22 -443.78zm1013.49 -79.74c18.5,21.96 24.27,52 13.87,78.59l-253.09 632.14c-9.24,25.41 -33.5,52 -56.63,65.87l-21.94 12.71 0 24.26 186.05 0 0 -24.26 -10.4 -6.94c-20.8,-17.33 -27.74,-46.23 -18.5,-71.64l27.74 -68.19 321.27 0 26.58 68.19c11.56,25.41 2.31,54.31 -18.5,71.64l-10.4 6.94 0 24.26 314.34 0 0 -24.26 -21.96 -11.56c-24.27,-15.02 -46.21,-41.61 -57.77,-67.02l-285.45 -735 -136.37 0 0 23.12 1.16 1.15zm-104.01 570.89l134.05 -337.45 131.74 337.45 -265.79 0zm620.58 -562.8c23.11,16.18 38.14,46.23 38.14,73.97l0 625.2c0,27.74 -15.03,56.62 -38.14,73.95l-10.4 8.1 0 24.26 287.75 0 0 -24.26 -11.56 -8.1c-20.8,-17.33 -36.98,-46.21 -36.98,-73.95l0 -253.08 98.24 0 167.56 317.79c13.86,24.27 41.6,41.6 68.19,41.6l204.54 0 0 -24.26 -25.42 -13.87c-24.27,-13.87 -49.69,-38.14 -62.41,-63.57l-87.82 -165.25c-18.49,-35.83 -53.16,-71.64 -88.99,-92.44l-9.24 -4.63c130.58,-20.8 213.79,-108.63 213.79,-238.07 0,-146.75 -102.85,-235.75 -272.73,-235.75l-444.92 0 0 23.12 10.4 9.24zm350.16 39.3c104,0 165.25,63.55 165.25,165.25 0,105.17 -64.71,169.88 -165.25,169.88l-121.35 0 0 -335.13 121.35 0zm792.77 777.75c160.64,0 270.42,-82.06 336.29,-221.89l0 -94.76c0,-27.74 15.03,-57.78 36.99,-75.11l10.4 -8.1 0 -24.27 -286.61 0 0 24.27 10.4 8.1c23.11,17.33 36.98,47.37 36.98,75.11l0 189.52c-21.95,5.78 -45.07,8.09 -69.34,8.09 -179.12,0 -269.26,-140.98 -269.26,-331.66 0,-195.31 94.77,-339.77 268.12,-339.77 12.7,0 26.57,1.16 39.28,2.32 -31.2,25.41 -50.85,64.71 -50.85,109.78 0,75.11 60.1,136.37 136.37,136.37 76.28,0 137.52,-61.26 137.52,-136.37 0,-139.84 -190.68,-183.75 -299.31,-183.75 -251.93,0 -422.97,172.19 -422.97,437.99 0,254.25 156.01,424.13 385.99,424.13zm677.21 -43.93c-20.81,-17.33 -36.98,-46.21 -36.98,-73.95l0 -625.2c0,-27.74 16.17,-57.79 36.98,-73.97l11.56 -9.24 0 -23.12 -287.76 0 0 23.12 10.4 9.24c23.11,16.18 38.14,46.23 38.14,73.97l0 625.2c0,27.74 -15.03,56.62 -38.14,73.95l-10.4 8.1 0 24.26 287.76 0 0 -24.26 -11.56 -8.1z"/>
   <path class="fil0" d="M3944.8 3170.24c70.49,-52.01 290.06,-474.97 367.49,-620.58 8.1,-17.33 18.5,-21.96 34.67,-18.49 70.5,9.24 153.71,17.33 223.04,27.73 47.38,6.94 93.61,18.5 140.99,24.27 36.97,3.47 64.71,-16.17 88.98,-57.78 16.18,-27.73 19.65,-45.06 -10.4,-47.39 -16.18,-1.14 -33.51,0 -50.85,-1.14 -57.77,-3.47 -268.11,-10.4 -315.49,-10.4 -48.53,-1.16 -68.17,-1.16 -42.76,-46.23 30.06,-52.01 62.41,-101.7 93.61,-153.71 10.4,-17.33 2.32,-21.96 -11.55,-15.02 -38.14,15.02 -52,33.52 -76.27,67.03 -28.9,40.45 -55.47,82.06 -80.9,124.81 -10.4,17.33 -19.64,26.58 -40.44,26.58 -45.07,-1.16 -171.04,-3.46 -234.61,13.87 -25.42,5.78 -35.82,17.34 -36.97,45.07 -3.47,38.14 32.35,115.56 76.27,150.22 20.8,15.03 40.44,2.33 38.14,-13.86 -2.31,-17.34 -6.94,-33.51 -9.24,-49.69 -4.63,-40.45 1.14,-63.56 24.26,-73.96 19.65,-10.4 87.82,-11.56 116.72,-12.71 15.03,0 21.96,4.62 15.03,18.48 -21.97,39.3 -70.5,119.04 -93.61,157.17 -105.17,169.88 -205.71,345.53 -317.81,416.03 -54.31,33.51 55.47,83.21 101.7,49.7zm171.04 -827.44c32.35,1.16 39.28,-21.95 2.31,-25.42 -82.06,-9.25 -157.17,-35.83 -165.27,-40.45 -39.28,-26.58 -6.93,-63.57 162.96,-83.4 98.22,-11.56 197.61,-23.11 295.83,-28.9 136.37,-8.08 501.56,-18.48 886.38,-18.48 62.41,0 115.57,-26.59 171.04,-49.89 3.47,-1.16 5.78,-6.93 9.24,-10.4 -4.62,-3.46 -9.24,-9.24 -13.87,-9.24l-98.23 -1.16 -723.42 -1.16c-376.75,-1.14 -704.94,28.9 -798.55,96.12 -18.49,12.71 -23.12,33.7 -17.33,57.97 9.24,33.51 42.75,61.26 88.98,78.59 64.71,23.11 132.9,32.35 199.93,35.82zm652.94 509.63c32.35,-8.08 88.98,-47.38 130.58,-84.35 -11.56,28.88 -13.87,61.24 3.47,71.64 31.2,20.8 189.52,-82.04 301.62,-195.3 12.7,-12.71 -2.31,-17.34 -19.64,0 -41.61,41.6 -172.2,146.77 -198.78,125.96 -17.33,-13.86 47.38,-107.47 58.94,-123.64 11.56,-17.34 -5.77,-54.33 -35.83,-26.59 -35.81,32.36 -176.81,181.44 -204.55,156.01 -28.88,-26.58 106.33,-199.92 182.6,-169.88 15.02,5.79 45.07,-39.28 12.71,-56.62 -33.51,-16.18 -145.61,27.74 -234.59,145.61 -88.99,117.88 -46.23,169.88 3.47,157.16zm348.99 13.87c56.64,33.52 265.8,-162.95 323.59,-220.72 26.57,-27.74 10.4,-31.21 -20.8,0 -57.8,57.77 -191.84,153.7 -217.27,143.3 -25.42,-9.26 127.13,-152.54 120.19,-182.6 -3.46,-17.33 -20.8,-15.01 -40.45,-17.33 -19.65,-3.47 -18.49,-15.02 -9.24,-24.27 27.73,-27.74 41.6,-64.71 18.49,-76.27 -26.59,-12.71 -154.86,84.36 -116.73,144.46 9.26,15.01 36.99,17.33 53.17,23.11 19.64,5.77 20.8,18.49 5.77,33.51 -30.04,31.2 -173.35,143.3 -116.72,176.81zm706.09 -9.24c12.71,-1.16 27.74,-5.78 39.3,-12.71 21.95,-13.87 43.91,-28.9 64.71,-45.07 52,-43.92 120.19,-109.79 166.41,-156.01 8.09,-8.09 -15.01,-5.79 -21.95,1.15 -32.36,32.36 -115.57,106.32 -168.73,135.2 -25.43,13.87 -42.76,3.47 -27.73,-27.73 18.49,-35.82 36.97,-71.64 54.31,-108.62 9.25,-19.66 18.49,-40.46 25.42,-61.26 2.32,-4.61 2.32,-15.01 -1.14,-18.48 -5.79,-3.47 -16.19,-6.93 -21.96,-4.63 -15.03,4.63 -28.9,12.71 -40.46,21.97 -33.51,21.94 -65.87,46.21 -99.38,69.33 -19.64,15.02 -45.07,30.05 -62.4,41.61 -8.1,5.77 -13.87,1.14 -9.24,-9.26l33.5 -71.64c6.94,-16.18 4.63,-31.2 -6.93,-42.77 -11.56,-10.4 -27.73,-4.61 -39.3,2.32 -30.04,17.34 -58.93,35.82 -87.81,55.47l-55.48 36.98c-6.93,3.47 -11.56,-2.31 -8.09,-8.09 28.9,-43.91 54.31,-87.82 35.83,-101.69 -40.46,-25.43 -142.14,69.34 -175.67,95.91 -16.17,13.87 5.79,15.03 17.34,3.47 21.96,-20.8 70.5,-47.38 70.5,-25.43 0,10.4 -15.03,30.06 -20.8,38.14l-90.14 120.19c-10.4,13.87 -20.8,27.74 -27.74,41.6 -3.47,5.78 -4.63,17.34 -1.16,21.95 4.63,4.63 15.03,6.94 21.96,5.79 34.67,-5.79 61.25,-25.43 86.68,-48.54l184.9 -162.94c15.02,-12.72 17.34,-5.79 10.4,12.71 -9.25,16.17 -18.49,33.51 -30.05,49.69 -13.87,21.95 -31.21,42.75 -43.91,65.87 -6.94,12.71 -11.56,28.89 -11.56,42.75 0,18.5 19.65,27.74 35.83,20.81 32.36,-12.71 197.61,-158.32 223.04,-182.59 8.08,-8.09 13.86,-2.31 9.24,6.93 -5.78,15.03 -12.71,30.05 -20.8,45.07 -9.24,19.64 -21.97,38.14 -31.21,57.78 -19.64,46.23 -34.66,101.7 24.27,94.77z"/>
  </g>
 </g>
</svg>
