<?xml version="1.0" encoding="UTF-8"?>
<!DOCTYPE svg PUBLIC "-//W3C//DTD SVG 1.1//EN" "http://www.w3.org/Graphics/SVG/1.1/DTD/svg11.dtd">
<!-- Creator: CorelDRAW -->
<svg xmlns="http://www.w3.org/2000/svg" xml:space="preserve" width="60.9598mm" height="42.3332mm" version="1.1" style="shape-rendering:geometricPrecision; text-rendering:geometricPrecision; image-rendering:optimizeQuality; fill-rule:evenodd; clip-rule:evenodd"
viewBox="0 0 6095.98 4233.32"
 xmlns:xlink="http://www.w3.org/1999/xlink"
 xmlns:xodm="http://www.corel.com/coreldraw/odm/2003">
 <defs>
  <style type="text/css">
   <![CDATA[
    .fil0 {fill:#FF9800;fill-rule:nonzero}
   ]]>
  </style>
 </defs>
 <g id="Layer_x0020_1">
  <metadata id="CorelCorpID_0Corel-Layer"/>
  <path class="fil0" d="M709.69 1989.33l-615.27 0 0 -1937.55 259.06 0 0 1702.78 356.21 0 0 234.77zm394 0l-259.06 0 0 -1605.63c0,-221.29 103.43,-331.92 310.31,-331.92l194.3 0c206.91,0 310.34,110.63 310.34,331.92l0 1605.63 -259.06 0 0 -709.7 -296.83 0 0 709.7zm296.83 -944.47l0 -644.97c0,-75.57 -37.77,-113.34 -113.34,-113.34l-70.15 0c-75.57,0 -113.34,37.77 -113.34,113.34l0 644.97 296.83 0zm488.44 -993.08l472.26 0c208.66,0 313.01,110.63 313.01,331.92l0 574.78c0,219.48 -103.42,329.24 -310.34,329.24l-215.87 0 0 701.61 -259.06 0 0 -1937.55zm259.06 1001.17l164.62 0c68.37,0 102.54,-37.8 102.54,-113.33l0 -539.73c0,-75.57 -38.66,-113.34 -116.05,-113.34l-151.11 0 0 766.4zm976.89 936.38l-259.06 0 0 -1605.63c0,-221.29 103.43,-331.92 310.31,-331.92l194.29 0c206.92,0 310.35,110.63 310.35,331.92l0 1605.63 -259.06 0 0 -709.7 -296.83 0 0 709.7zm296.83 -944.47l0 -644.97c0,-75.57 -37.77,-113.34 -113.34,-113.34l-70.15 0c-75.57,0 -113.34,37.77 -113.34,113.34l0 644.97 296.83 0zm747.5 944.47l-259.06 0 0 -1937.55 259.06 0 0 1937.55zm596.36 0l-259.06 0 -323.82 -947.18 0 -16.19 269.86 -974.18 237.49 0 -272.58 963.37 348.11 974.18zm-3316.51 254.66l-286.05 1937.55 -280.64 0 -159.23 -1122.57 -156.49 1122.57 -280.67 0 -286.02 -1937.55 256.35 0 183.48 1451.82 183.53 -1451.82 202.38 0 183.49 1451.82 183.49 -1451.82 256.38 0zm367.01 1937.55l-259.05 0 0 -1605.63c0,-221.29 103.42,-331.92 310.3,-331.92l194.3 0c206.91,0 310.34,110.63 310.34,331.92l0 1605.63 -259.06 0 0 -709.7 -296.83 0 0 709.7zm296.83 -944.47l0 -644.97c0,-75.57 -37.77,-113.34 -113.34,-113.34l-70.15 0c-75.57,0 -113.34,37.77 -113.34,113.34l0 644.97 296.83 0zm1497.71 944.47l0 -879.71 -318.43 0 0 879.71 -259.06 0 0 -1937.55 259.06 0 0 823.07 318.43 0 0 -823.07 259.06 0 0 1937.55 -259.06 0zm747.51 0l-259.06 0 0 -1605.63c0,-221.29 103.42,-331.92 310.31,-331.92l194.29 0c206.92,0 310.34,110.63 310.34,331.92l0 1605.63 -259.06 0 0 -709.7 -296.82 0 0 709.7zm296.82 -944.47l0 -644.97c0,-75.57 -37.77,-113.34 -113.33,-113.34l-70.16 0c-75.56,0 -113.33,37.77 -113.33,113.34l0 644.97 296.82 0zm394.01 709.7l170.01 0c77.35,0 116.01,-46.79 116.01,-140.34l0 -1562.44 259.06 0 0 1611.02c0,217.69 -99.82,326.53 -299.54,326.53l-245.54 0 0 -234.77zm787.95 234.77l0 -1937.55 259.06 0 0 1937.55 -259.06 0z"/>
 </g>
</svg>
