<?xml version="1.0" encoding="UTF-8"?>
<!DOCTYPE svg PUBLIC "-//W3C//DTD SVG 1.1//EN" "http://www.w3.org/Graphics/SVG/1.1/DTD/svg11.dtd">
<!-- Creator: CorelDRAW -->
<svg xmlns="http://www.w3.org/2000/svg" xml:space="preserve" width="60.9598mm" height="42.3332mm" version="1.1" style="shape-rendering:geometricPrecision; text-rendering:geometricPrecision; image-rendering:optimizeQuality; fill-rule:evenodd; clip-rule:evenodd"
viewBox="0 0 6095.98 4233.32"
 xmlns:xlink="http://www.w3.org/1999/xlink"
 xmlns:xodm="http://www.corel.com/coreldraw/odm/2003">
 <defs>
  <style type="text/css">
   <![CDATA[
    .fil0 {fill:#FF9800;fill-rule:nonzero}
   ]]>
  </style>
 </defs>
 <g id="Layer_x0020_1">
  <metadata id="CorelCorpID_0Corel-Layer"/>
  <g id="_2108468631808">
   <path class="fil0" d="M414.31 1887.55c208.54,0 348.04,-136.73 348.04,-341.13 0,-204.4 -139.5,-341.13 -348.04,-341.13l-414.32 0 0 1022 223.73 0 0 -339.74 190.59 0zm-49.72 -483.38c107.72,0 161.58,46.96 161.58,142.25 0,95.29 -53.86,142.25 -161.58,142.25l-140.87 0 0 -284.5 140.87 0zm987.46 132.58c-29,-6.9 -56.62,-9.66 -81.48,-9.66 -92.53,0 -153.3,45.57 -182.3,113.25l-11.06 -102.21 -200.24 0 0 689.16 212.67 0 0 -299.7c0,-136.72 73.21,-190.58 194.73,-190.58l67.68 0 0 -200.26zm49.72 343.9c0,218.2 160.19,363.21 381.17,363.21 219.59,0 379.78,-145.01 379.78,-363.21 0,-218.22 -160.19,-364.62 -379.78,-364.62 -220.98,0 -381.17,146.4 -381.17,364.62zm214.05 -1.39c0,-103.58 67.68,-172.63 167.12,-172.63 98.05,0 165.72,69.05 165.72,172.63 0,104.97 -67.67,174.01 -165.72,174.01 -99.44,0 -167.12,-69.04 -167.12,-174.01zm776.16 -450.24c66.29,0 120.16,-53.86 120.16,-121.52 0,-67.68 -53.87,-120.15 -120.16,-120.15 -67.67,0 -121.54,52.47 -121.54,120.15 0,67.66 53.87,121.52 121.54,121.52zm-261.02 1135.25c49.72,15.19 77.34,16.57 107.73,16.57 165.72,0 259.63,-103.58 259.63,-258.26l0 -785.83 -212.67 0 0 758.21c0,60.76 -15.21,89.77 -67.68,89.77 -20.72,0 -31.76,-1.39 -52.47,-8.29l-34.54 187.83zm847.97 -319.02c189.21,0 325.94,-98.07 350.8,-251.37l-194.73 0c-15.21,49.72 -71.82,78.72 -151.93,78.72 -93.91,0 -145.01,-42.8 -157.44,-133.95l501.34 -2.77 0 -53.86c0,-225.11 -135.36,-367.36 -352.19,-367.36 -208.53,0 -353.54,150.54 -353.54,365.99 0,212.67 149.16,364.6 357.69,364.6zm-2.76 -557.96c85.62,0 139.48,46.96 139.48,120.15l-287.25 0c16.57,-82.86 63.52,-120.15 147.77,-120.15zm439.19 191.97c0,220.97 140.87,365.99 359.07,365.99 193.34,0 334.23,-118.79 348.03,-292.8l-214.06 0c-13.82,67.68 -59.39,102.21 -133.97,102.21 -91.15,0 -145.01,-64.92 -145.01,-175.4 0,-106.34 58,-174.01 147.77,-174.01 73.2,0 116.01,33.14 131.21,102.19l214.06 0c-13.8,-180.91 -149.16,-292.78 -353.56,-292.78 -207.16,0 -353.54,151.91 -353.54,364.6zm1102.08 348.03l0 -513.76 131.21 0 0 -176.78 -131.21 0 0 -214.06 -212.67 0 0 214.06 -131.21 0 0 176.78 131.21 0 0 513.76 212.67 0zm425.38 -821.74l0 821.74 214.06 0 0 -1022 -446.08 0 0 200.26 232.02 0zm535.84 74.58c-124.3,169.87 -169.87,262.4 -169.87,388.09 0,214.05 167.11,377.03 396.36,377.03 226.5,0 390.84,-151.93 390.84,-375.66 0,-209.92 -143.62,-354.93 -353.56,-354.93 -13.8,0 -27.61,1.37 -41.43,4.14l233.41 -313.51 -255.49 0 -200.26 274.84zm59.39 390.84c0,-104.96 66.29,-175.4 167.1,-175.4 98.06,0 164.35,70.44 164.35,175.4 0,104.97 -67.67,176.77 -164.35,176.77 -99.44,0 -167.1,-71.8 -167.1,-176.77z"/>
   <path class="fil0" d="M112.22 3041.33c81.66,0 138.55,-58.83 138.55,-142.42 0,-85.14 -58.43,-143.96 -142.41,-143.96l-108.37 0 0 286.38 112.23 0zm-10.07 -228.34c51.87,0 82.45,31.74 82.45,85.92 0,53.03 -29.03,84.36 -78.57,84.36l-43.35 0 0 -170.28 39.47 0zm693.59 228.34l0 -58.06 -119.2 0 0 -59.2 105.66 0 0 -54.95 -105.66 0 0 -56.13 119.2 0 0 -58.04 -181.89 0 0 286.38 181.89 0zm452.09 0l64.64 0 105.26 -286.38 -65.4 0 -53.42 144.73c-6.19,17.04 -11.6,32.9 -18.95,60.38 -6.19,-24.77 -11.62,-42.57 -18.2,-60.38l-54.18 -144.73 -66.95 0 107.2 286.38zm704.8 0l0 -58.06 -119.2 0 0 -59.2 105.65 0 0 -54.95 -105.65 0 0 -56.13 119.2 0 0 -58.04 -181.89 0 0 286.38 181.89 0zm433.51 -286.38l-62.69 0 0 286.38 175.69 0 0 -58.06 -113 0 0 -228.32zm723 142.8c0,-87.46 -57.29,-147.84 -140.49,-147.84 -82.82,0 -140.11,60.76 -140.11,148.22 0,87.48 56.9,147.84 139.72,147.84 83.21,0 140.88,-60.75 140.88,-148.22zm-66.19 0c0,54.19 -27.86,87.86 -73.92,87.86 -46.44,0 -74.3,-32.9 -74.3,-87.86 0,-54.57 27.86,-87.46 74.3,-87.46 46.06,0 73.92,32.89 73.92,87.46zm545.36 48.38c58.44,0 97.52,-38.31 97.52,-95.6 0,-57.27 -39.08,-95.58 -97.52,-95.58l-116.1 0 0 286.38 62.69 0 0 -95.2 53.41 0zm-13.94 -135.46c30.19,0 45.29,13.16 45.29,39.86 0,26.71 -15.1,39.87 -45.29,39.87l-39.47 0 0 -79.73 39.47 0zm531.05 230.66l0 -80.11c0,-31.35 -0.39,-55.35 -3.87,-76.63l60.38 156.74 57.27 0 60.76 -156.74c-3.09,21.28 -3.09,34.83 -3.09,96.75l0 59.99 60.75 0 0 -286.38 -61.53 0 -85.52 213.62 -85.15 -213.62 -60.76 0 0 286.38 60.76 0zm793.04 0l0 -58.06 -119.2 0 0 -59.2 105.65 0 0 -54.95 -105.65 0 0 -56.13 119.2 0 0 -58.04 -181.89 0 0 286.38 181.89 0zm432.73 0l0 -181.9 120.75 181.9 61.93 0 0 -286.38 -61.93 0 0 182.27 -120.75 -182.27 -61.91 0 0 286.38 61.91 0zm539.56 -228.34l81.27 0 0 228.34 62.7 0 0 -228.34 81.27 0 0 -58.04 -225.24 0 0 58.04z"/>
  </g>
 </g>
</svg>
